HIERARCHY
ROOT hip
{
	OFFSET 0.000000 0.000000 0.000000 
	CHANNELS 6 Xposition Yposition Zposition Zrotation Xrotation Yrotation
	JOINT abdomen
	{
		OFFSET 0.000000 3.402643 0.000000 
		CHANNELS 3 Zrotation Xrotation Yrotation
		JOINT chest
		{
			OFFSET 0.000000 8.438565 -0.680529 
			CHANNELS 3 Zrotation Xrotation Yrotation
			JOINT neck
			{
				OFFSET 0.000000 10.207942 -0.272212 
				CHANNELS 3 Zrotation Xrotation Yrotation
				JOINT head
				{
					OFFSET 0.000000 3.130431 0.000000 
					CHANNELS 3 Zrotation Xrotation Yrotation
					End Site
					{
						OFFSET 0.000000 3.130435 0.000000 
					}
				}
			}
			JOINT lCollar
			{
				OFFSET 3.470700 6.669187 -0.816635 
				CHANNELS 3 Zrotation Xrotation Yrotation
				JOINT lShldr
				{
					OFFSET 3.198488 0.000000 0.000000 
					CHANNELS 3 Zrotation Xrotation Yrotation
					JOINT lForeArm
					{
						OFFSET 10.139888 0.000000 0.000000 
						CHANNELS 3 Zrotation Xrotation Yrotation
						JOINT lHand
						{
							OFFSET 8.370511 0.000000 0.000000 
							CHANNELS 3 Zrotation Xrotation Yrotation
							End Site
							{
								OFFSET 4.083176 0.000000 0.000000 
							}
						}
					}
				}
			}
			JOINT rCollar
			{
				OFFSET -3.470700 6.669187 -0.816635 
				CHANNELS 3 Zrotation Xrotation Yrotation
				JOINT rShldr
				{
					OFFSET -3.198488 0.000000 0.000000 
					CHANNELS 3 Zrotation Xrotation Yrotation
					JOINT rForeArm
					{
						OFFSET -10.139888 0.000000 0.000000 
						CHANNELS 3 Zrotation Xrotation Yrotation
						JOINT rHand
						{
							OFFSET -8.370511 0.000000 0.000000 
							CHANNELS 3 Zrotation Xrotation Yrotation
							End Site
							{
								OFFSET -4.083176 0.000000 0.000000 
							}
						}
					}
				}
			}
		}
	}
	JOINT lThigh
	{
		OFFSET 5.308129 -1.633274 1.361059 
		CHANNELS 3 Zrotation Xrotation Yrotation
		JOINT lShin
		{
			OFFSET -2.041588 -20.007561 0.000000 
			CHANNELS 3 Zrotation Xrotation Yrotation
			JOINT lFoot
			{
				OFFSET 0.000000 -19.190928 -1.224953 
				CHANNELS 3 Zrotation Xrotation Yrotation
				End Site
				{
					OFFSET 0.000000 -2.449906 4.627600 
				}
			}
		}
	}
	JOINT rThigh
	{
		OFFSET -5.308129 -1.633274 1.361059 
		CHANNELS 3 Zrotation Xrotation Yrotation
		JOINT rShin
		{
			OFFSET 2.041588 -20.007561 0.000000 
			CHANNELS 3 Zrotation Xrotation Yrotation
			JOINT rFoot
			{
				OFFSET 0.000000 -19.190928 -1.224953 
				CHANNELS 3 Zrotation Xrotation Yrotation
				End Site
				{
					OFFSET 0.000000 -2.449906 4.627600 
				}
			}
		}
	}
}
MOTION
Frames: 18
Frame Time: 0.033333
-0.009433 45.926064 0.459089 -0.000000 3.369131 -0.000000 0.009771 1.865232 -0.058910 0.048829 0.371097 -0.088198 -0.000000 -0.000003 -0.000000 -0.000000 0.097656 -0.000000 -5.706314 -0.291004 1.943445 -70.046867 17.203714 8.487838 -8.633000 3.172095 -23.970818 6.414467 -2.327380 -2.583883 5.762278 -0.366212 -1.982133 72.054008 20.128477 -8.022201 7.426316 1.789391 21.031466 -6.649659 -4.233728 1.135446 3.359375 -15.299604 1.443697 -3.434677 23.280312 -0.469006 -0.128227 -11.706019 0.352238 -4.778217 -15.333180 -2.038944 2.828518 23.320625 0.235305 0.736858 -11.843026 -0.966139 
-0.020440 44.677925 0.670222 -0.000000 7.646475 -0.000000 0.029378 4.267578 -0.119369 0.117203 0.908206 -0.187405 -0.000000 -0.000003 -0.000000 -0.000000 0.332031 -0.000000 -5.725271 -0.313154 1.865652 -66.785904 19.094610 6.243194 -8.428638 2.474301 -28.671442 7.086822 -5.066901 -1.953283 5.836301 -0.491813 -1.943025 71.024994 25.608606 -4.690120 6.236540 -0.948407 21.708702 -7.960489 -10.578814 -1.238702 3.922844 -24.384434 2.199443 -4.143421 32.285725 -0.425331 0.279342 -15.937503 0.526294 -5.372332 -24.399811 -2.234473 3.420038 32.309010 0.171465 0.573928 -16.277538 -1.601125 
-0.032221 43.407738 0.885378 -0.000000 12.001944 -0.000000 0.039330 6.689453 -0.190128 0.175835 1.416010 -0.287518 -0.000000 -0.000003 -0.000000 -0.000000 0.507813 -0.000000 -5.744301 -0.335246 1.787860 -62.990627 21.001097 3.870753 -8.597123 1.911641 -34.276741 7.849241 -7.930588 -1.243821 5.920364 -0.617653 -1.894194 68.932022 31.303049 -1.177249 5.011997 -3.561608 23.378908 -9.807162 -16.374805 -3.803727 4.566412 -32.585606 3.056563 -4.687176 39.313381 -0.266188 0.506549 -19.009033 0.660585 -6.077899 -32.620113 -3.332115 4.009141 39.432117 0.043952 0.228907 -19.178949 -1.556055 
-0.045095 42.322250 1.070665 -0.000000 15.693350 -0.000000 0.059261 8.603516 -0.243240 0.234469 1.621085 -0.377727 -0.000000 -0.000003 -0.000000 -0.000000 0.322267 -0.000000 -5.763307 -0.359264 1.719787 -58.006977 22.667639 1.619246 -9.790419 2.403008 -42.986847 8.574636 -10.788345 -0.281051 5.995267 -0.723525 -1.864824 65.057945 36.886314 1.416372 3.903844 -5.024025 29.426466 -11.562511 -18.181633 -6.222106 5.254568 -39.158604 3.960931 -5.086767 44.502899 -0.244102 0.578760 -21.340176 0.779684 -6.841173 -39.128242 -4.583439 4.277454 44.553143 -0.042113 -0.008960 -21.620222 -1.354188 
-0.059375 41.628189 1.192194 -0.000000 17.998037 -0.000000 0.059409 9.501944 -0.273469 0.263737 1.269522 -0.435530 -0.000000 -0.000003 -0.000000 -0.000000 -0.507812 -0.000000 -5.782527 -0.374443 1.680859 -51.284397 23.818110 -0.277543 -12.023621 5.682812 -56.770195 9.215813 -13.484962 1.103084 6.080756 -0.795743 -1.874266 59.367340 42.137936 1.554087 2.787402 -4.779584 43.205700 -11.960658 -12.684278 -7.937850 5.764332 -43.063591 4.616743 -5.331089 47.389263 -0.208775 0.609788 -22.548340 0.880901 -7.389243 -43.078129 -5.208132 4.558786 47.535248 -0.167701 -0.081046 -22.768251 -1.463501 
-0.074559 41.475540 1.235099 -0.000000 18.408192 -0.000000 0.039551 9.013666 -0.279635 0.273438 0.185542 -0.430527 -0.000000 -0.000003 -0.000000 -0.000000 -2.207031 -0.000000 -6.875765 -0.407475 1.687003 -42.814766 24.336994 -1.629182 -12.889586 13.565802 -76.018654 9.725349 -15.882534 2.926090 7.934568 -0.870111 -1.895839 52.827755 46.807030 -2.083328 0.664482 -3.758833 66.055481 -10.213978 1.478193 -8.896943 5.906176 -43.827919 4.756496 -5.395610 48.151283 -0.161481 0.527331 -22.964493 0.742037 -7.495112 -43.823483 -5.283132 4.676847 48.204277 -0.233217 -0.045934 -23.152252 -1.426011 
-0.086848 41.787247 1.260596 -0.000000 17.304678 -0.000000 0.019693 7.343748 -0.266189 0.253995 -1.513659 -0.393681 -0.000000 -0.000003 -0.000000 -0.000000 -4.814453 -0.000000 -9.784877 -0.485920 1.693752 -34.711414 24.633554 -2.728993 -8.451954 23.306992 -96.735649 10.119774 -18.046989 4.553357 11.458959 -0.960762 -1.895133 47.554348 50.706097 -7.786195 -1.716342 -4.604938 91.433510 -7.519441 17.985744 -9.600040 5.672600 -41.923550 4.403408 -5.354780 46.871853 -0.038709 0.584803 -22.512430 0.798711 -7.169782 -41.888618 -5.201375 4.351676 46.961674 -0.082980 -0.027045 -22.663458 -1.185485 
-0.091622 42.429523 1.348918 -0.000000 15.263662 -0.000000 -0.009801 4.853516 -0.253079 0.225059 -3.623013 -0.347106 -0.000000 -0.000003 -0.000000 -0.000000 -8.271485 -0.000000 -12.967328 -0.573603 1.693945 -29.532963 25.258022 -3.995836 -0.124858 29.805756 -113.595123 10.350663 -20.080612 5.208067 13.755584 -0.963361 -1.849734 44.652340 54.032127 -12.164687 -2.304561 -6.282443 110.949188 -6.155034 28.681664 -9.380636 5.233971 -38.041981 3.896864 -4.972465 44.081451 -0.266537 0.488183 -21.687086 0.661188 -6.626618 -38.046829 -4.265845 4.209819 44.185726 -0.023714 0.058732 -21.762753 -1.479680 
-0.085712 43.276550 1.558331 -0.000000 12.822256 -0.000000 -0.039083 1.865237 -0.242877 0.206191 -5.956992 -0.300832 -0.000000 -0.000003 -0.000000 -0.000000 -12.470703 -0.000000 -12.196631 -0.533432 1.708586 -29.047773 26.582226 -5.778613 5.366502 32.265739 -120.035583 10.280140 -22.091808 4.230394 12.617965 -0.816118 -1.724929 43.798569 57.385288 -11.800159 -1.430444 -5.743014 118.409805 -7.939550 27.491449 -6.843716 4.700764 -32.932678 3.145092 -4.699356 40.047913 -0.317161 0.411978 -20.252005 0.638718 -6.054458 -32.960598 -3.378143 3.936914 40.164017 0.083842 0.243979 -20.403372 -1.551127 
-0.072101 44.232067 1.855468 -0.000000 10.214833 -0.000000 -0.058611 -1.367185 -0.245549 0.187544 -8.369096 -0.255906 -0.000000 -0.000003 -0.000000 -0.000000 -16.865232 -0.000000 -7.989829 -0.395292 1.711740 -31.943506 28.398472 -7.987918 6.388216 33.327965 -117.535202 9.831483 -24.044973 2.025797 8.844873 -0.583732 -1.553597 43.168411 60.748547 -6.746878 0.102682 -3.173508 116.452385 -10.590117 17.080919 -3.208083 4.184282 -26.943810 2.392104 -4.422902 34.726318 -0.329034 0.321022 -18.320059 0.572260 -5.498297 -26.908302 -2.559383 3.754520 34.713104 0.082701 0.284215 -18.563318 -1.560728 
-0.054723 45.215252 2.190806 -0.000000 7.607412 -0.000000 -0.078380 -4.619136 -0.260218 0.178916 -10.742134 -0.210793 -0.000000 -0.000003 -0.000000 -0.000000 -20.830082 -0.000000 -2.035744 -0.207273 1.707913 -36.470474 30.373003 -10.428489 4.630093 33.972172 -110.079666 9.072339 -25.864326 -0.839894 3.743238 -0.332197 -1.344797 41.244949 63.618900 2.000309 2.707329 -0.127772 109.218140 -11.977393 1.882056 0.299860 3.705991 -20.281687 1.772623 -3.955717 28.159580 -0.477571 0.163745 -16.005856 0.572842 -5.026691 -20.270489 -2.487629 3.179919 28.207073 0.209643 0.484054 -16.020361 -1.028106 
-0.036843 46.148838 2.521329 -0.000000 5.156241 -0.000000 -0.098539 -7.675770 -0.276851 0.170348 -12.949164 -0.176642 -0.000000 -0.000003 -0.000000 -0.000000 -23.759764 -0.000000 4.269753 -0.011684 1.675032 -41.288445 32.256317 -12.872432 1.804701 34.355640 -100.980370 8.109163 -27.450361 -3.853231 -1.604296 -0.124830 -1.112857 37.685085 65.521866 12.839849 6.333794 2.052311 100.041237 -11.491146 -14.351356 3.715354 3.238189 -13.141019 1.154724 -3.214299 20.133705 -0.427557 -0.397877 -12.636052 0.368960 -4.602185 -13.185522 -1.069953 2.715163 20.161741 0.038620 0.994161 -12.703845 -1.614105 
-0.021896 46.913635 2.794734 -0.000000 3.154287 -0.000000 -0.119064 -10.185522 -0.284747 0.161579 -14.755800 -0.144366 -0.000000 -0.000003 -0.000000 -0.000000 -25.009762 -0.000000 9.589566 0.148010 1.636952 -45.232708 33.748295 -14.969389 -0.787926 34.554207 -93.088074 7.171733 -28.696011 -6.429642 -6.094199 0.021400 -0.922486 33.676132 66.349457 22.884022 9.927164 2.890245 91.928864 -9.473330 -27.907276 7.173912 2.986078 -7.858713 0.632038 -3.004676 15.116900 -0.281814 -0.406901 -10.905828 0.453934 -4.355970 -7.855786 -0.596341 2.441080 14.609091 -0.129364 1.122723 -10.457543 -1.548288 
-0.021924 46.318916 2.999559 -0.000000 1.474599 -0.400391 -0.218304 -10.214770 -0.390277 0.030299 -14.775384 -0.197351 -0.000000 -0.000003 -0.000000 -0.000000 -25.273430 -0.000000 -1.586310 -0.227527 1.522862 -29.850777 32.225342 -14.975638 -0.668992 36.844406 -102.658836 10.281874 -28.304726 -0.395152 2.848970 -0.183337 -0.926591 16.782084 66.503319 23.876926 10.040368 4.830893 100.482910 -7.896282 -27.229059 6.949067 3.155866 -8.082945 0.813666 -3.367945 20.014164 -0.299194 -0.112031 -13.947981 0.828200 -4.556483 -8.164958 -0.686594 2.847116 19.975338 0.049223 0.857457 -13.906739 -1.252389 
-0.021951 45.724197 3.204382 -0.000000 -0.205088 -0.800781 -0.317562 -10.243979 -0.486217 -0.090905 -14.794903 -0.238057 -0.000000 -0.000003 -0.000000 -0.000000 -25.546873 -0.000000 -12.764149 -0.548483 1.342934 -14.454596 30.700331 -15.003225 0.612915 40.074806 -112.517792 13.271938 -27.639368 5.592602 11.782476 -0.386789 -0.908195 -0.137768 66.660469 24.893040 9.781087 6.866034 109.032143 -6.322522 -26.540878 6.719787 3.331312 -8.959146 0.984042 -3.829973 26.795050 -0.504825 0.291861 -18.049669 1.371078 -4.843204 -9.149747 -0.749033 3.217296 26.808722 0.145670 0.749394 -18.032087 -0.930635 
0.046406 46.252865 2.499414 0.000000 -1.503916 -1.201172 -0.307647 -10.253764 -0.474738 -0.060606 -14.804675 -0.259637 -0.000000 -0.000003 -0.000000 -0.000000 -25.820316 -0.000000 -2.942391 -0.308154 1.443418 -24.714815 32.693924 -15.771244 -1.409517 38.545532 -104.681305 12.192008 -28.464262 2.146002 3.219954 -0.204535 -0.858025 11.523463 67.212753 25.338196 9.858599 5.882101 101.674881 -5.051094 -27.024057 8.625384 3.002805 -6.100239 0.687180 -3.487346 22.019321 -0.418273 0.065339 -14.831834 1.734036 -4.801554 -6.484658 -0.900609 2.838480 22.258039 0.189227 1.016148 -14.776498 -0.121636 
0.114762 46.781521 1.794446 0.000000 -2.802745 -1.601563 -0.297742 -10.273307 -0.463258 -0.020203 -14.814449 -0.278607 -0.000000 -0.000003 -0.000000 -0.000000 -26.093752 -0.000000 6.888300 -0.045450 1.493065 -34.890869 34.677246 -16.606863 -2.980065 37.274944 -97.041016 11.041079 -29.192295 -1.326225 -5.352666 -0.043405 -0.787572 23.157482 67.753632 25.823378 9.858030 4.985922 94.320068 -3.737099 -27.462736 10.535041 2.623702 -2.744464 0.374871 -3.010207 16.197773 -0.342182 -0.157964 -11.166652 2.065337 -4.739533 -3.257391 -0.646381 2.485639 16.537973 0.217418 1.327267 -10.962624 0.191303 
0.183119 47.310188 1.089477 -0.000000 -4.091807 -2.001952 -0.287826 -10.283074 -0.461538 0.010102 -14.824218 -0.300148 -0.000000 -0.000003 -0.000000 -0.000000 -26.367191 -0.000000 16.718752 0.224908 1.496445 -44.996735 36.637863 -17.502483 -4.240903 36.326572 -89.523270 9.766218 -29.833641 -4.870389 -13.915877 0.098026 -0.701448 34.781139 68.295425 26.308180 9.792812 4.179795 86.965538 -2.393597 -27.876734 12.467528 2.343016 -0.390189 0.064915 -2.440500 12.589376 -0.304237 -0.564255 -8.639728 2.581472 -4.787950 -1.107632 -0.082187 2.374856 13.105334 -0.175321 1.529718 -8.515042 0.474253 
